<?xml version="1.0" encoding="UTF-8"?>
<svg id="Capa_1" data-name="Capa 1" xmlns="http://www.w3.org/2000/svg" version="1.1" viewBox="0 0 32 32">
  <defs>
    <style>
      .cls-1 {
        fill: #ff000b;
      }

      .cls-1, .cls-2 {
        fill-rule: evenodd;
      }

      .cls-1, .cls-2, .cls-3 {
        stroke-width: 0px;
      }

      .cls-2 {
        fill: #0029a1;
      }

      .cls-3 {
        fill: #fff;
      }
    </style>
  </defs>
  <path class="cls-3" d="M3.4,0h25.6v19.2c0,7.1-5.7,12.8-12.8,12.8h0c-7.1,0-12.8-5.7-12.8-12.8V0h0Z"/>
  <g>
    <path class="cls-1" d="M8.4,13.7V5c0-1.2,1.1-2.4,2.3-2.4s.5.2.5.5v16.7c0,.5.2.5.6.5.6-.1.9-.5.9-1.1V3.2c0-.5.2-.8.7-.7h1.6c.5,0,.5.2.5.5v16.6c0,.4,0,.5.5.5,1.2,0,1,.2,1-1v-5.7c0-.5,0-.6.6-.6h1.7c.5,0,.5,0,.5.5v5.9c0,.7,0,.8.6.8q.8,0,.8-.8v-5.9c0-.5,0-.6.5-.5h1.7c.4,0,.5,0,.5.5v7.8c0,.5-.2.5-.5.5h-13c-.5,0-.6.3-.7.7,0,.5.2.7.6.8h.9c.4,0,.5,0,.5.5q0,1.1-1,1.1c-1.6,0-2.5-.8-2.5-2.5v-8.6h0Z"/>
    <path class="cls-1" d="M24,7.1v3.9c0,.5-.2.6-.6.5h-5.9c-.5,0-.5,0-.5-.5V3c0-.5.2-.5.5-.5h6.1c.4,0,.5,0,.5.5v4h0Z"/>
    <path class="cls-1" d="M15.5,23.3h7.9c.5,0,.7.2.6.6v.3c0,.5-.2.5-.5.5h-8v-1.5h0Z"/>
    <path class="cls-2" d="M15.5,23.3v2.9c-.5-.3-.8-.6-1.2-1-.2-.2-.4-.3-.6,0s-.5.5-.8.8c0,0-.2.2-.3,0-.2,0,0-.2,0-.3v-2.9c0-.3,0-.4.4-.4h2.2c.6,0,.3.5.4.7h0Z"/>
  </g>
</svg>